<svg width="42" height="32" viewBox="0 0 42 32" fill="none" xmlns="http://www.w3.org/2000/svg">
<path fill-rule="evenodd" clip-rule="evenodd" d="M1.83331 10.25C2.3856 10.25 2.83331 10.6977 2.83331 11.25C2.83331 16.0681 4.7473 20.6889 8.15421 24.0958C11.5611 27.5027 16.1819 29.4167 21 29.4167C25.8181 29.4167 30.4388 27.5027 33.8458 24.0958C37.2527 20.6889 39.1666 16.0681 39.1666 11.25C39.1666 10.6977 39.6144 10.25 40.1666 10.25C40.7189 10.25 41.1666 10.6977 41.1666 11.25C41.1666 16.5985 39.042 21.728 35.26 25.51C31.478 29.292 26.3485 31.4167 21 31.4167C15.6514 31.4167 10.522 29.292 6.73999 25.51C2.95801 21.728 0.833313 16.5985 0.833313 11.25C0.833313 10.6977 1.28103 10.25 1.83331 10.25Z" fill="url(#paint0_linear_1_41)"/>
<path fill-rule="evenodd" clip-rule="evenodd" d="M0.833313 11.25C0.833313 10.6977 1.28103 10.25 1.83331 10.25C4.48164 10.25 7.10403 10.7716 9.55076 11.7851C11.9975 12.7986 14.2207 14.284 16.0933 16.1567C17.9659 18.0293 19.4514 20.2525 20.4649 22.6992C20.6619 23.1749 20.8403 23.6572 21 24.145C21.9764 21.1613 23.6452 18.4181 25.9067 16.1567C29.6886 12.3747 34.8181 10.25 40.1666 10.25C40.7189 10.25 41.1666 10.6977 41.1666 11.25C41.1666 11.8023 40.7189 12.25 40.1666 12.25C35.3485 12.25 30.7278 14.164 27.3209 17.5709C23.914 20.9778 22 25.5986 22 30.4167C22 30.969 21.5523 31.4167 21 31.4167C20.4477 31.4167 20 30.969 20 30.4167C20 28.031 19.5301 25.6687 18.6171 23.4646C17.7042 21.2605 16.366 19.2578 14.6791 17.5709C12.9922 15.884 10.9895 14.5458 8.7854 13.6329C6.58131 12.7199 4.21899 12.25 1.83331 12.25C1.28103 12.25 0.833313 11.8023 0.833313 11.25Z" fill="url(#paint1_linear_1_41)"/>
<path fill-rule="evenodd" clip-rule="evenodd" d="M21.6946 0.947367C21.6155 0.870867 21.5267 0.809934 21.4322 0.764658C21.2958 0.699273 21.1478 0.666727 21 0.666748C20.749 0.666784 20.4983 0.760767 20.3054 0.947366C18.2719 2.88973 16.6803 5.24711 15.6389 7.85932C14.5968 10.4733 14.1301 13.2811 14.2704 16.0916C14.298 16.6432 14.7674 17.068 15.319 17.0405C15.8706 17.013 16.2955 16.5435 16.2679 15.9919C16.1419 13.4683 16.561 10.9471 17.4967 8.59996C18.3112 6.55709 19.5003 4.68778 21 3.08708C22.4997 4.68778 23.6888 6.55709 24.5033 8.59996C25.439 10.9471 25.8581 13.4683 25.7321 15.9919C25.7045 16.5435 26.1294 17.013 26.681 17.0405C27.2326 17.068 27.702 16.6432 27.7296 16.0916C27.8699 13.2811 27.4032 10.4733 26.3611 7.85932C25.3197 5.24711 23.7281 2.88973 21.6946 0.947367Z" fill="url(#paint2_linear_1_41)"/>
<defs>
<linearGradient id="paint0_linear_1_41" x1="0.833313" y1="20.8333" x2="41.1666" y2="20.8333" gradientUnits="userSpaceOnUse">
<stop stop-color="#2AF598"/>
<stop offset="1" stop-color="#009EFD"/>
</linearGradient>
<linearGradient id="paint1_linear_1_41" x1="0.833313" y1="20.8333" x2="41.1666" y2="20.8333" gradientUnits="userSpaceOnUse">
<stop stop-color="#2AF598"/>
<stop offset="1" stop-color="#009EFD"/>
</linearGradient>
<linearGradient id="paint2_linear_1_41" x1="14.246" y1="8.85426" x2="27.754" y2="8.85426" gradientUnits="userSpaceOnUse">
<stop stop-color="#2AF598"/>
<stop offset="1" stop-color="#009EFD"/>
</linearGradient>
</defs>
</svg>
